<mxfile host="app.diagrams.net" agent="Mozilla/5.0 (Windows NT 10.0; Win64; x64) AppleWebKit/537.36 (KHTML, like Gecko) Chrome/136.0.0.0 Safari/537.36" version="26.2.14">
  <diagram name="Page-1" id="-k4ylig54BLyi7uf8oay">
    <mxGraphModel dx="4552" dy="2894" grid="1" gridSize="10" guides="1" tooltips="1" connect="1" arrows="1" fold="1" page="1" pageScale="1" pageWidth="850" pageHeight="1100" math="0" shadow="0">
      <root>
        <mxCell id="0" />
        <mxCell id="1" parent="0" />
        <mxCell id="HEaPXVeIBszuFgr27QMk-1" value="" style="shape=umlLifeline;perimeter=lifelinePerimeter;whiteSpace=wrap;html=1;container=1;dropTarget=0;collapsible=0;recursiveResize=0;outlineConnect=0;portConstraint=eastwest;newEdgeStyle={&quot;curved&quot;:0,&quot;rounded&quot;:0};participant=umlActor;" vertex="1" parent="1">
          <mxGeometry x="-830" y="-40" width="30" height="1720" as="geometry" />
        </mxCell>
        <mxCell id="HEaPXVeIBszuFgr27QMk-2" value="SimpleReaderHomepage" style="shape=umlLifeline;perimeter=lifelinePerimeter;whiteSpace=wrap;html=1;container=1;dropTarget=0;collapsible=0;recursiveResize=0;outlineConnect=0;portConstraint=eastwest;newEdgeStyle={&quot;curved&quot;:0,&quot;rounded&quot;:0};fontSize=14;fontStyle=1;fillColor=#dae8fc;strokeColor=#6c8ebf;" vertex="1" parent="1">
          <mxGeometry x="-690" y="-40" width="190" height="1720" as="geometry" />
        </mxCell>
        <mxCell id="HEaPXVeIBszuFgr27QMk-3" value="" style="html=1;points=[[0,0,0,0,5],[0,1,0,0,-5],[1,0,0,0,5],[1,1,0,0,-5]];perimeter=orthogonalPerimeter;outlineConnect=0;targetShapes=umlLifeline;portConstraint=eastwest;newEdgeStyle={&quot;curved&quot;:0,&quot;rounded&quot;:0};strokeColor=#000000;fillColor=#dae8fc;" vertex="1" parent="HEaPXVeIBszuFgr27QMk-2">
          <mxGeometry x="90" y="90" width="10" height="100" as="geometry" />
        </mxCell>
        <mxCell id="HEaPXVeIBszuFgr27QMk-5" value="" style="html=1;points=[[0,0,0,0,5],[0,1,0,0,-5],[1,0,0,0,5],[1,1,0,0,-5]];perimeter=orthogonalPerimeter;outlineConnect=0;targetShapes=umlLifeline;portConstraint=eastwest;newEdgeStyle={&quot;curved&quot;:0,&quot;rounded&quot;:0};strokeColor=#000000;fillColor=#dae8fc;" vertex="1" parent="HEaPXVeIBszuFgr27QMk-2">
          <mxGeometry x="90" y="1120" width="10" height="50" as="geometry" />
        </mxCell>
        <mxCell id="HEaPXVeIBszuFgr27QMk-6" value="SimpleReaderController" style="shape=umlLifeline;perimeter=lifelinePerimeter;whiteSpace=wrap;html=1;container=1;dropTarget=0;collapsible=0;recursiveResize=0;outlineConnect=0;portConstraint=eastwest;newEdgeStyle={&quot;curved&quot;:0,&quot;rounded&quot;:0};fontSize=14;fontStyle=1;fillColor=#dae8fc;strokeColor=#6c8ebf;" vertex="1" parent="1">
          <mxGeometry x="-440" y="-40" width="190" height="2080" as="geometry" />
        </mxCell>
        <mxCell id="HEaPXVeIBszuFgr27QMk-7" value="" style="html=1;points=[[0,0,0,0,5],[0,1,0,0,-5],[1,0,0,0,5],[1,1,0,0,-5]];perimeter=orthogonalPerimeter;outlineConnect=0;targetShapes=umlLifeline;portConstraint=eastwest;newEdgeStyle={&quot;curved&quot;:0,&quot;rounded&quot;:0};strokeColor=#000000;fillColor=#dae8fc;" vertex="1" parent="HEaPXVeIBszuFgr27QMk-6">
          <mxGeometry x="90" y="140" width="10" height="360" as="geometry" />
        </mxCell>
        <mxCell id="HEaPXVeIBszuFgr27QMk-36" value="" style="html=1;points=[[0,0,0,0,5],[0,1,0,0,-5],[1,0,0,0,5],[1,1,0,0,-5]];perimeter=orthogonalPerimeter;outlineConnect=0;targetShapes=umlLifeline;portConstraint=eastwest;newEdgeStyle={&quot;curved&quot;:0,&quot;rounded&quot;:0};strokeColor=#000000;fillColor=#dae8fc;" vertex="1" parent="HEaPXVeIBszuFgr27QMk-6">
          <mxGeometry x="90" y="550" width="10" height="130" as="geometry" />
        </mxCell>
        <mxCell id="HEaPXVeIBszuFgr27QMk-50" value="" style="html=1;points=[[0,0,0,0,5],[0,1,0,0,-5],[1,0,0,0,5],[1,1,0,0,-5]];perimeter=orthogonalPerimeter;outlineConnect=0;targetShapes=umlLifeline;portConstraint=eastwest;newEdgeStyle={&quot;curved&quot;:0,&quot;rounded&quot;:0};strokeColor=#000000;fillColor=#dae8fc;" vertex="1" parent="HEaPXVeIBszuFgr27QMk-6">
          <mxGeometry x="90" y="780" width="10" height="70" as="geometry" />
        </mxCell>
        <mxCell id="HEaPXVeIBszuFgr27QMk-62" value="" style="html=1;points=[[0,0,0,0,5],[0,1,0,0,-5],[1,0,0,0,5],[1,1,0,0,-5]];perimeter=orthogonalPerimeter;outlineConnect=0;targetShapes=umlLifeline;portConstraint=eastwest;newEdgeStyle={&quot;curved&quot;:0,&quot;rounded&quot;:0};strokeColor=#000000;fillColor=#dae8fc;" vertex="1" parent="HEaPXVeIBszuFgr27QMk-6">
          <mxGeometry x="90" y="1220" width="10" height="80" as="geometry" />
        </mxCell>
        <mxCell id="HEaPXVeIBszuFgr27QMk-89" value="" style="html=1;points=[[0,0,0,0,5],[0,1,0,0,-5],[1,0,0,0,5],[1,1,0,0,-5]];perimeter=orthogonalPerimeter;outlineConnect=0;targetShapes=umlLifeline;portConstraint=eastwest;newEdgeStyle={&quot;curved&quot;:0,&quot;rounded&quot;:0};strokeColor=#000000;fillColor=#dae8fc;" vertex="1" parent="HEaPXVeIBszuFgr27QMk-6">
          <mxGeometry x="90" y="1830" width="10" height="60" as="geometry" />
        </mxCell>
        <mxCell id="HEaPXVeIBszuFgr27QMk-8" value="SimpleReaderService" style="shape=umlLifeline;perimeter=lifelinePerimeter;whiteSpace=wrap;html=1;container=1;dropTarget=0;collapsible=0;recursiveResize=0;outlineConnect=0;portConstraint=eastwest;newEdgeStyle={&quot;curved&quot;:0,&quot;rounded&quot;:0};fontSize=14;fontStyle=1;fillColor=#dae8fc;strokeColor=#6c8ebf;" vertex="1" parent="1">
          <mxGeometry x="-170" y="-40" width="190" height="2210" as="geometry" />
        </mxCell>
        <mxCell id="HEaPXVeIBszuFgr27QMk-9" value="" style="html=1;points=[[0,0,0,0,5],[0,1,0,0,-5],[1,0,0,0,5],[1,1,0,0,-5]];perimeter=orthogonalPerimeter;outlineConnect=0;targetShapes=umlLifeline;portConstraint=eastwest;newEdgeStyle={&quot;curved&quot;:0,&quot;rounded&quot;:0};strokeColor=#000000;fillColor=#dae8fc;" vertex="1" parent="HEaPXVeIBszuFgr27QMk-8">
          <mxGeometry x="90" y="170" width="10" height="280" as="geometry" />
        </mxCell>
        <mxCell id="HEaPXVeIBszuFgr27QMk-64" value="" style="html=1;points=[[0,0,0,0,5],[0,1,0,0,-5],[1,0,0,0,5],[1,1,0,0,-5]];perimeter=orthogonalPerimeter;outlineConnect=0;targetShapes=umlLifeline;portConstraint=eastwest;newEdgeStyle={&quot;curved&quot;:0,&quot;rounded&quot;:0};strokeColor=#000000;fillColor=#dae8fc;" vertex="1" parent="HEaPXVeIBszuFgr27QMk-8">
          <mxGeometry x="90" y="1260" width="10" height="150" as="geometry" />
        </mxCell>
        <mxCell id="HEaPXVeIBszuFgr27QMk-11" value="Simple Reader" style="text;html=1;align=center;verticalAlign=middle;resizable=0;points=[];autosize=1;strokeColor=none;fillColor=none;fontSize=14;fontStyle=1" vertex="1" parent="1">
          <mxGeometry x="-875" y="-70" width="120" height="30" as="geometry" />
        </mxCell>
        <mxCell id="HEaPXVeIBszuFgr27QMk-12" value="&lt;span style=&quot;color: rgba(0, 0, 0, 0); font-family: monospace; font-size: 0px; text-align: start;&quot;&gt;%3CmxGraphModel%3E%3Croot%3E%3CmxCell%20id%3D%220%22%2F%3E%3CmxCell%20id%3D%221%22%20parent%3D%220%22%2F%3E%3CmxCell%20id%3D%222%22%20value%3D%22clicks%20%26quot%3BEdit%20Profile%20Information%26quot%3B%22%20style%3D%22html%3D1%3BverticalAlign%3Dbottom%3BstartArrow%3Doval%3BstartFill%3D1%3BendArrow%3Dblock%3BstartSize%3D8%3Bcurved%3D0%3Brounded%3D0%3BfontSize%3D13%3BfontStyle%3D2%3BlabelBackgroundColor%3Dnone%3B%22%20edge%3D%221%22%20parent%3D%221%22%3E%3CmxGeometry%20width%3D%2260%22%20relative%3D%221%22%20as%3D%22geometry%22%3E%3CmxPoint%20x%3D%22-810%22%20y%3D%2290%22%20as%3D%22sourcePoint%22%2F%3E%3CmxPoint%20x%3D%22-595%22%20y%3D%2290%22%20as%3D%22targetPoint%22%2F%3E%3C%2FmxGeometry%3E%3C%2FmxCell%3E%3C%2Froot%3E%3C%2FmxGraphModel%3E&lt;/span&gt;" style="text;html=1;align=center;verticalAlign=middle;resizable=0;points=[];autosize=1;strokeColor=none;fillColor=none;" vertex="1" parent="1">
          <mxGeometry x="-800" y="38" width="20" height="30" as="geometry" />
        </mxCell>
        <mxCell id="HEaPXVeIBszuFgr27QMk-13" value="clicks &quot;My Book Offers&quot;" style="html=1;verticalAlign=bottom;startArrow=oval;startFill=1;endArrow=block;startSize=8;curved=0;rounded=0;fontSize=13;fontStyle=2;labelBackgroundColor=none;" edge="1" parent="1">
          <mxGeometry width="60" relative="1" as="geometry">
            <mxPoint x="-810" y="90" as="sourcePoint" />
            <mxPoint x="-595" y="90" as="targetPoint" />
          </mxGeometry>
        </mxCell>
        <mxCell id="HEaPXVeIBszuFgr27QMk-14" value="listBookOffers()" style="html=1;verticalAlign=bottom;startArrow=oval;startFill=1;endArrow=block;startSize=8;curved=0;rounded=0;fontSize=13;fontStyle=2;labelBackgroundColor=none;" edge="1" parent="1">
          <mxGeometry width="60" relative="1" as="geometry">
            <mxPoint x="-590" y="120" as="sourcePoint" />
            <mxPoint x="-350" y="120" as="targetPoint" />
          </mxGeometry>
        </mxCell>
        <mxCell id="HEaPXVeIBszuFgr27QMk-15" value="retrieveBookOffers()" style="html=1;verticalAlign=bottom;startArrow=oval;startFill=1;endArrow=block;startSize=8;curved=0;rounded=0;fontSize=13;fontStyle=2;labelBackgroundColor=none;" edge="1" parent="1">
          <mxGeometry width="60" relative="1" as="geometry">
            <mxPoint x="-340" y="150" as="sourcePoint" />
            <mxPoint x="-75" y="150" as="targetPoint" />
          </mxGeometry>
        </mxCell>
        <mxCell id="HEaPXVeIBszuFgr27QMk-16" value="SimpleReaderMapper" style="shape=umlLifeline;perimeter=lifelinePerimeter;whiteSpace=wrap;html=1;container=1;dropTarget=0;collapsible=0;recursiveResize=0;outlineConnect=0;portConstraint=eastwest;newEdgeStyle={&quot;curved&quot;:0,&quot;rounded&quot;:0};fontSize=14;fontStyle=1;fillColor=#dae8fc;strokeColor=#6c8ebf;" vertex="1" parent="1">
          <mxGeometry x="80" y="-40" width="190" height="2230" as="geometry" />
        </mxCell>
        <mxCell id="HEaPXVeIBszuFgr27QMk-17" value="" style="html=1;points=[[0,0,0,0,5],[0,1,0,0,-5],[1,0,0,0,5],[1,1,0,0,-5]];perimeter=orthogonalPerimeter;outlineConnect=0;targetShapes=umlLifeline;portConstraint=eastwest;newEdgeStyle={&quot;curved&quot;:0,&quot;rounded&quot;:0};strokeColor=#000000;fillColor=#dae8fc;" vertex="1" parent="HEaPXVeIBszuFgr27QMk-16">
          <mxGeometry x="90" y="200" width="10" height="130" as="geometry" />
        </mxCell>
        <mxCell id="HEaPXVeIBszuFgr27QMk-68" value="" style="html=1;points=[[0,0,0,0,5],[0,1,0,0,-5],[1,0,0,0,5],[1,1,0,0,-5]];perimeter=orthogonalPerimeter;outlineConnect=0;targetShapes=umlLifeline;portConstraint=eastwest;newEdgeStyle={&quot;curved&quot;:0,&quot;rounded&quot;:0};strokeColor=#000000;fillColor=#dae8fc;" vertex="1" parent="HEaPXVeIBszuFgr27QMk-16">
          <mxGeometry x="90" y="1300" width="10" height="110" as="geometry" />
        </mxCell>
        <mxCell id="HEaPXVeIBszuFgr27QMk-19" value="DBManager" style="shape=umlLifeline;perimeter=lifelinePerimeter;whiteSpace=wrap;html=1;container=1;dropTarget=0;collapsible=0;recursiveResize=0;outlineConnect=0;portConstraint=eastwest;newEdgeStyle={&quot;curved&quot;:0,&quot;rounded&quot;:0};fontSize=14;fontStyle=1;fillColor=#dae8fc;strokeColor=#6c8ebf;" vertex="1" parent="1">
          <mxGeometry x="320" y="-40" width="100" height="2250" as="geometry" />
        </mxCell>
        <mxCell id="HEaPXVeIBszuFgr27QMk-20" value="" style="html=1;points=[[0,0,0,0,5],[0,1,0,0,-5],[1,0,0,0,5],[1,1,0,0,-5]];perimeter=orthogonalPerimeter;outlineConnect=0;targetShapes=umlLifeline;portConstraint=eastwest;newEdgeStyle={&quot;curved&quot;:0,&quot;rounded&quot;:0};strokeColor=#000000;fillColor=#dae8fc;" vertex="1" parent="HEaPXVeIBszuFgr27QMk-19">
          <mxGeometry x="45" y="210" width="10" height="100" as="geometry" />
        </mxCell>
        <mxCell id="HEaPXVeIBszuFgr27QMk-70" value="" style="html=1;points=[[0,0,0,0,5],[0,1,0,0,-5],[1,0,0,0,5],[1,1,0,0,-5]];perimeter=orthogonalPerimeter;outlineConnect=0;targetShapes=umlLifeline;portConstraint=eastwest;newEdgeStyle={&quot;curved&quot;:0,&quot;rounded&quot;:0};strokeColor=#000000;fillColor=#dae8fc;" vertex="1" parent="HEaPXVeIBszuFgr27QMk-19">
          <mxGeometry x="45" y="1320" width="10" height="60" as="geometry" />
        </mxCell>
        <mxCell id="HEaPXVeIBszuFgr27QMk-22" value="findById()" style="html=1;verticalAlign=bottom;startArrow=oval;startFill=1;endArrow=block;startSize=8;curved=0;rounded=0;fontSize=13;fontStyle=2;labelBackgroundColor=none;" edge="1" parent="1">
          <mxGeometry width="60" relative="1" as="geometry">
            <mxPoint x="-70" y="180" as="sourcePoint" />
            <mxPoint x="170" y="180" as="targetPoint" />
          </mxGeometry>
        </mxCell>
        <mxCell id="HEaPXVeIBszuFgr27QMk-23" value="find SimpleReader" style="html=1;verticalAlign=bottom;startArrow=oval;startFill=1;endArrow=block;startSize=8;curved=0;rounded=0;fontSize=13;fontStyle=2;labelBackgroundColor=none;" edge="1" parent="1">
          <mxGeometry width="60" relative="1" as="geometry">
            <mxPoint x="180" y="210" as="sourcePoint" />
            <mxPoint x="365" y="210" as="targetPoint" />
          </mxGeometry>
        </mxCell>
        <mxCell id="HEaPXVeIBszuFgr27QMk-24" value="return SimpleReader" style="html=1;verticalAlign=bottom;endArrow=open;dashed=1;endSize=8;curved=0;rounded=0;fontSize=13;fontStyle=2" edge="1" parent="1">
          <mxGeometry relative="1" as="geometry">
            <mxPoint x="370" y="250" as="sourcePoint" />
            <mxPoint x="180" y="250" as="targetPoint" />
          </mxGeometry>
        </mxCell>
        <mxCell id="HEaPXVeIBszuFgr27QMk-25" value="return SimpleReader" style="html=1;verticalAlign=bottom;endArrow=open;dashed=1;endSize=8;curved=0;rounded=0;fontSize=13;fontStyle=2" edge="1" parent="1">
          <mxGeometry relative="1" as="geometry">
            <mxPoint x="169.5" y="280" as="sourcePoint" />
            <mxPoint x="-70" y="280" as="targetPoint" />
          </mxGeometry>
        </mxCell>
        <mxCell id="HEaPXVeIBszuFgr27QMk-26" value="SimpleReader" style="shape=umlLifeline;perimeter=lifelinePerimeter;whiteSpace=wrap;html=1;container=1;dropTarget=0;collapsible=0;recursiveResize=0;outlineConnect=0;portConstraint=eastwest;newEdgeStyle={&quot;curved&quot;:0,&quot;rounded&quot;:0};fontSize=14;fontStyle=1;fillColor=#dae8fc;strokeColor=#6c8ebf;" vertex="1" parent="1">
          <mxGeometry x="440" y="-40" width="110" height="2240" as="geometry" />
        </mxCell>
        <mxCell id="HEaPXVeIBszuFgr27QMk-21" value="" style="html=1;points=[[0,0,0,0,5],[0,1,0,0,-5],[1,0,0,0,5],[1,1,0,0,-5]];perimeter=orthogonalPerimeter;outlineConnect=0;targetShapes=umlLifeline;portConstraint=eastwest;newEdgeStyle={&quot;curved&quot;:0,&quot;rounded&quot;:0};strokeColor=#000000;fillColor=#dae8fc;" vertex="1" parent="HEaPXVeIBszuFgr27QMk-26">
          <mxGeometry x="50" y="350" width="10" height="70" as="geometry" />
        </mxCell>
        <mxCell id="HEaPXVeIBszuFgr27QMk-29" value="getBookOffers()" style="html=1;verticalAlign=bottom;startArrow=oval;startFill=1;endArrow=block;startSize=8;curved=0;rounded=0;fontSize=13;fontStyle=2;labelBackgroundColor=none;" edge="1" parent="1" target="HEaPXVeIBszuFgr27QMk-26">
          <mxGeometry width="60" relative="1" as="geometry">
            <mxPoint x="-70" y="320" as="sourcePoint" />
            <mxPoint x="170" y="320" as="targetPoint" />
          </mxGeometry>
        </mxCell>
        <mxCell id="HEaPXVeIBszuFgr27QMk-30" value="return BookOffers" style="html=1;verticalAlign=bottom;endArrow=open;dashed=1;endSize=8;curved=0;rounded=0;fontSize=13;fontStyle=2" edge="1" parent="1">
          <mxGeometry relative="1" as="geometry">
            <mxPoint x="494.50000000000045" y="363" as="sourcePoint" />
            <mxPoint x="-70" y="363" as="targetPoint" />
          </mxGeometry>
        </mxCell>
        <mxCell id="HEaPXVeIBszuFgr27QMk-31" value="return BookOffers" style="html=1;verticalAlign=bottom;endArrow=open;dashed=1;endSize=8;curved=0;rounded=0;fontSize=13;fontStyle=2" edge="1" parent="1">
          <mxGeometry relative="1" as="geometry">
            <mxPoint x="-80" y="390" as="sourcePoint" />
            <mxPoint x="-340" y="390" as="targetPoint" />
          </mxGeometry>
        </mxCell>
        <mxCell id="HEaPXVeIBszuFgr27QMk-32" value="MyBookOffers" style="shape=umlLifeline;perimeter=lifelinePerimeter;whiteSpace=wrap;html=1;container=1;dropTarget=0;collapsible=0;recursiveResize=0;outlineConnect=0;portConstraint=eastwest;newEdgeStyle={&quot;curved&quot;:0,&quot;rounded&quot;:0};fontSize=14;fontStyle=1;fillColor=#dae8fc;strokeColor=#6c8ebf;" vertex="1" parent="1">
          <mxGeometry x="600" y="-40" width="110" height="2230" as="geometry" />
        </mxCell>
        <mxCell id="HEaPXVeIBszuFgr27QMk-33" value="" style="html=1;points=[[0,0,0,0,5],[0,1,0,0,-5],[1,0,0,0,5],[1,1,0,0,-5]];perimeter=orthogonalPerimeter;outlineConnect=0;targetShapes=umlLifeline;portConstraint=eastwest;newEdgeStyle={&quot;curved&quot;:0,&quot;rounded&quot;:0};strokeColor=#000000;fillColor=#dae8fc;" vertex="1" parent="HEaPXVeIBszuFgr27QMk-32">
          <mxGeometry x="50" y="450" width="10" height="120" as="geometry" />
        </mxCell>
        <mxCell id="HEaPXVeIBszuFgr27QMk-34" value="call" style="html=1;verticalAlign=bottom;startArrow=oval;startFill=1;endArrow=block;startSize=8;curved=0;rounded=0;fontSize=13;fontStyle=2;labelBackgroundColor=none;" edge="1" parent="1" target="HEaPXVeIBszuFgr27QMk-32">
          <mxGeometry width="60" relative="1" as="geometry">
            <mxPoint x="-340" y="440" as="sourcePoint" />
            <mxPoint x="525" y="440" as="targetPoint" />
          </mxGeometry>
        </mxCell>
        <mxCell id="HEaPXVeIBszuFgr27QMk-35" value="clicks &quot;Add new Book Offer&quot;" style="html=1;verticalAlign=bottom;startArrow=oval;startFill=1;endArrow=block;startSize=8;curved=0;rounded=0;fontSize=13;fontStyle=2;labelBackgroundColor=none;" edge="1" parent="1" source="HEaPXVeIBszuFgr27QMk-1">
          <mxGeometry width="60" relative="1" as="geometry">
            <mxPoint x="-809" y="490" as="sourcePoint" />
            <mxPoint x="651" y="480" as="targetPoint" />
          </mxGeometry>
        </mxCell>
        <mxCell id="HEaPXVeIBszuFgr27QMk-37" value="showOfferForm()" style="html=1;verticalAlign=bottom;startArrow=oval;startFill=1;endArrow=block;startSize=8;curved=0;rounded=0;fontSize=13;fontStyle=2;labelBackgroundColor=none;" edge="1" parent="1">
          <mxGeometry width="60" relative="1" as="geometry">
            <mxPoint x="650" y="520" as="sourcePoint" />
            <mxPoint x="-345.75" y="520" as="targetPoint" />
          </mxGeometry>
        </mxCell>
        <mxCell id="HEaPXVeIBszuFgr27QMk-38" value="Book" style="shape=umlLifeline;perimeter=lifelinePerimeter;whiteSpace=wrap;html=1;container=1;dropTarget=0;collapsible=0;recursiveResize=0;outlineConnect=0;portConstraint=eastwest;newEdgeStyle={&quot;curved&quot;:0,&quot;rounded&quot;:0};fontSize=14;fontStyle=1;fillColor=#dae8fc;strokeColor=#6c8ebf;" vertex="1" parent="1">
          <mxGeometry x="760" y="-40" width="60" height="2240" as="geometry" />
        </mxCell>
        <mxCell id="HEaPXVeIBszuFgr27QMk-39" value="" style="html=1;points=[[0,0,0,0,5],[0,1,0,0,-5],[1,0,0,0,5],[1,1,0,0,-5]];perimeter=orthogonalPerimeter;outlineConnect=0;targetShapes=umlLifeline;portConstraint=eastwest;newEdgeStyle={&quot;curved&quot;:0,&quot;rounded&quot;:0};strokeColor=#000000;fillColor=#dae8fc;" vertex="1" parent="HEaPXVeIBszuFgr27QMk-38">
          <mxGeometry x="25" y="580" width="10" height="50" as="geometry" />
        </mxCell>
        <mxCell id="HEaPXVeIBszuFgr27QMk-41" value="&quot;create&quot;" style="html=1;verticalAlign=bottom;endArrow=open;dashed=1;endSize=8;curved=0;rounded=0;fontSize=13;fontStyle=2" edge="1" parent="1">
          <mxGeometry relative="1" as="geometry">
            <mxPoint x="-340" y="555" as="sourcePoint" />
            <mxPoint x="789.4999999999995" y="555" as="targetPoint" />
          </mxGeometry>
        </mxCell>
        <mxCell id="HEaPXVeIBszuFgr27QMk-42" value="AddNewBookOffer" style="shape=umlLifeline;perimeter=lifelinePerimeter;whiteSpace=wrap;html=1;container=1;dropTarget=0;collapsible=0;recursiveResize=0;outlineConnect=0;portConstraint=eastwest;newEdgeStyle={&quot;curved&quot;:0,&quot;rounded&quot;:0};fontSize=14;fontStyle=1;fillColor=#dae8fc;strokeColor=#6c8ebf;" vertex="1" parent="1">
          <mxGeometry x="840" y="-40" width="150" height="2240" as="geometry" />
        </mxCell>
        <mxCell id="HEaPXVeIBszuFgr27QMk-43" value="" style="html=1;points=[[0,0,0,0,5],[0,1,0,0,-5],[1,0,0,0,5],[1,1,0,0,-5]];perimeter=orthogonalPerimeter;outlineConnect=0;targetShapes=umlLifeline;portConstraint=eastwest;newEdgeStyle={&quot;curved&quot;:0,&quot;rounded&quot;:0};strokeColor=#000000;fillColor=#dae8fc;" vertex="1" parent="HEaPXVeIBszuFgr27QMk-42">
          <mxGeometry x="70" y="630" width="10" height="200" as="geometry" />
        </mxCell>
        <mxCell id="HEaPXVeIBszuFgr27QMk-61" value="" style="html=1;points=[[0,0,0,0,5],[0,1,0,0,-5],[1,0,0,0,5],[1,1,0,0,-5]];perimeter=orthogonalPerimeter;outlineConnect=0;targetShapes=umlLifeline;portConstraint=eastwest;newEdgeStyle={&quot;curved&quot;:0,&quot;rounded&quot;:0};strokeColor=#000000;fillColor=#dae8fc;" vertex="1" parent="HEaPXVeIBszuFgr27QMk-42">
          <mxGeometry x="70" y="1220" width="10" height="60" as="geometry" />
        </mxCell>
        <mxCell id="HEaPXVeIBszuFgr27QMk-44" value="call" style="html=1;verticalAlign=bottom;startArrow=oval;startFill=1;endArrow=block;startSize=8;curved=0;rounded=0;fontSize=13;fontStyle=2;labelBackgroundColor=none;" edge="1" parent="1" target="HEaPXVeIBszuFgr27QMk-42">
          <mxGeometry width="60" relative="1" as="geometry">
            <mxPoint x="-340" y="620" as="sourcePoint" />
            <mxPoint x="655" y="620" as="targetPoint" />
          </mxGeometry>
        </mxCell>
        <mxCell id="HEaPXVeIBszuFgr27QMk-45" value="alt" style="shape=umlFrame;whiteSpace=wrap;html=1;pointerEvents=0;" vertex="1" parent="1">
          <mxGeometry x="-890" y="640" width="2050" height="510" as="geometry" />
        </mxCell>
        <mxCell id="HEaPXVeIBszuFgr27QMk-46" value="Fill correct the form" style="text;html=1;align=center;verticalAlign=middle;resizable=0;points=[];autosize=1;fontSize=14;fontStyle=2;fillColor=#f8cecc;strokeColor=#b85450;" vertex="1" parent="1">
          <mxGeometry x="-780" y="680" width="140" height="30" as="geometry" />
        </mxCell>
        <mxCell id="HEaPXVeIBszuFgr27QMk-47" value="Fill incorrect the form" style="text;html=1;align=center;verticalAlign=middle;resizable=0;points=[];autosize=1;fontSize=14;fontStyle=2;fillColor=#f8cecc;strokeColor=#b85450;" vertex="1" parent="1">
          <mxGeometry x="-780" y="860" width="150" height="30" as="geometry" />
        </mxCell>
        <mxCell id="HEaPXVeIBszuFgr27QMk-48" value="fill correct the form &amp;amp; click &quot;Submit Offer&quot;" style="html=1;verticalAlign=bottom;startArrow=oval;startFill=1;endArrow=block;startSize=8;curved=0;rounded=0;fontSize=13;fontStyle=2;labelBackgroundColor=none;" edge="1" parent="1" target="HEaPXVeIBszuFgr27QMk-42">
          <mxGeometry width="60" relative="1" as="geometry">
            <mxPoint x="-816.0384615384614" y="730" as="sourcePoint" />
            <mxPoint x="524.5" y="730" as="targetPoint" />
          </mxGeometry>
        </mxCell>
        <mxCell id="HEaPXVeIBszuFgr27QMk-49" value="checkValidation()" style="html=1;verticalAlign=bottom;startArrow=oval;startFill=1;endArrow=block;startSize=8;curved=0;rounded=0;fontSize=13;fontStyle=2;labelBackgroundColor=none;" edge="1" parent="1" target="HEaPXVeIBszuFgr27QMk-50">
          <mxGeometry width="60" relative="1" as="geometry">
            <mxPoint x="910" y="770" as="sourcePoint" />
            <mxPoint x="50" y="770" as="targetPoint" />
          </mxGeometry>
        </mxCell>
        <mxCell id="HEaPXVeIBszuFgr27QMk-51" value="fill incorrect the form &amp;amp; click &quot;Submit Offer&quot;" style="html=1;verticalAlign=bottom;startArrow=oval;startFill=1;endArrow=block;startSize=8;curved=0;rounded=0;fontSize=13;fontStyle=2;labelBackgroundColor=none;entryX=0;entryY=0;entryDx=0;entryDy=5;entryPerimeter=0;" edge="1" parent="1">
          <mxGeometry width="60" relative="1" as="geometry">
            <mxPoint x="-815.75" y="917" as="sourcePoint" />
            <mxPoint x="910" y="917" as="targetPoint" />
          </mxGeometry>
        </mxCell>
        <mxCell id="HEaPXVeIBszuFgr27QMk-52" value="" style="html=1;points=[[0,0,0,0,5],[0,1,0,0,-5],[1,0,0,0,5],[1,1,0,0,-5]];perimeter=orthogonalPerimeter;outlineConnect=0;targetShapes=umlLifeline;portConstraint=eastwest;newEdgeStyle={&quot;curved&quot;:0,&quot;rounded&quot;:0};strokeColor=#000000;fillColor=#dae8fc;" vertex="1" parent="1">
          <mxGeometry x="910" y="900" width="10" height="90" as="geometry" />
        </mxCell>
        <mxCell id="HEaPXVeIBszuFgr27QMk-53" value="WrongBookDetails" style="shape=umlLifeline;perimeter=lifelinePerimeter;whiteSpace=wrap;html=1;container=1;dropTarget=0;collapsible=0;recursiveResize=0;outlineConnect=0;portConstraint=eastwest;newEdgeStyle={&quot;curved&quot;:0,&quot;rounded&quot;:0};fontSize=14;fontStyle=1;fillColor=#dae8fc;strokeColor=#6c8ebf;" vertex="1" parent="1">
          <mxGeometry x="1040" y="-40" width="150" height="2240" as="geometry" />
        </mxCell>
        <mxCell id="HEaPXVeIBszuFgr27QMk-54" value="" style="html=1;points=[[0,0,0,0,5],[0,1,0,0,-5],[1,0,0,0,5],[1,1,0,0,-5]];perimeter=orthogonalPerimeter;outlineConnect=0;targetShapes=umlLifeline;portConstraint=eastwest;newEdgeStyle={&quot;curved&quot;:0,&quot;rounded&quot;:0};strokeColor=#000000;fillColor=#dae8fc;" vertex="1" parent="HEaPXVeIBszuFgr27QMk-53">
          <mxGeometry x="70" y="960" width="10" height="60" as="geometry" />
        </mxCell>
        <mxCell id="HEaPXVeIBszuFgr27QMk-55" value="call" style="html=1;verticalAlign=bottom;startArrow=oval;startFill=1;endArrow=block;startSize=8;curved=0;rounded=0;fontSize=13;fontStyle=2;labelBackgroundColor=none;" edge="1" parent="1" target="HEaPXVeIBszuFgr27QMk-54">
          <mxGeometry width="60" relative="1" as="geometry">
            <mxPoint x="920.0000000000005" y="940" as="sourcePoint" />
            <mxPoint x="1269.4999999999995" y="940" as="targetPoint" />
          </mxGeometry>
        </mxCell>
        <mxCell id="HEaPXVeIBszuFgr27QMk-56" value="fill correct the form &amp;amp; click &quot;Submit Offer&quot;" style="html=1;verticalAlign=bottom;startArrow=oval;startFill=1;endArrow=block;startSize=8;curved=0;rounded=0;fontSize=13;fontStyle=2;labelBackgroundColor=none;entryX=0;entryY=0;entryDx=0;entryDy=5;entryPerimeter=0;" edge="1" parent="1">
          <mxGeometry width="60" relative="1" as="geometry">
            <mxPoint x="-815.75" y="975.23" as="sourcePoint" />
            <mxPoint x="910" y="975.23" as="targetPoint" />
          </mxGeometry>
        </mxCell>
        <mxCell id="HEaPXVeIBszuFgr27QMk-57" value="Cancelation of offer" style="text;html=1;align=center;verticalAlign=middle;resizable=0;points=[];autosize=1;fontSize=14;fontStyle=2;fillColor=#f8cecc;strokeColor=#b85450;" vertex="1" parent="1">
          <mxGeometry x="-780" y="1010" width="140" height="30" as="geometry" />
        </mxCell>
        <mxCell id="HEaPXVeIBszuFgr27QMk-58" value="" style="html=1;points=[[0,0,0,0,5],[0,1,0,0,-5],[1,0,0,0,5],[1,1,0,0,-5]];perimeter=orthogonalPerimeter;outlineConnect=0;targetShapes=umlLifeline;portConstraint=eastwest;newEdgeStyle={&quot;curved&quot;:0,&quot;rounded&quot;:0};strokeColor=#000000;fillColor=#dae8fc;" vertex="1" parent="1">
          <mxGeometry x="910" y="1040" width="10" height="60" as="geometry" />
        </mxCell>
        <mxCell id="HEaPXVeIBszuFgr27QMk-59" value="fill incorrect the form &amp;amp; click &quot;Back&quot;" style="html=1;verticalAlign=bottom;startArrow=oval;startFill=1;endArrow=block;startSize=8;curved=0;rounded=0;fontSize=13;fontStyle=2;labelBackgroundColor=none;entryX=0;entryY=0;entryDx=0;entryDy=5;entryPerimeter=0;" edge="1" parent="1">
          <mxGeometry width="60" relative="1" as="geometry">
            <mxPoint x="-815.75" y="1060" as="sourcePoint" />
            <mxPoint x="910" y="1060" as="targetPoint" />
          </mxGeometry>
        </mxCell>
        <mxCell id="HEaPXVeIBszuFgr27QMk-60" value="call" style="html=1;verticalAlign=bottom;startArrow=oval;startFill=1;endArrow=block;startSize=8;curved=0;rounded=0;fontSize=13;fontStyle=2;labelBackgroundColor=none;" edge="1" parent="1" target="HEaPXVeIBszuFgr27QMk-5">
          <mxGeometry width="60" relative="1" as="geometry">
            <mxPoint x="910" y="1090" as="sourcePoint" />
            <mxPoint x="-200.00000000000045" y="1090" as="targetPoint" />
          </mxGeometry>
        </mxCell>
        <mxCell id="HEaPXVeIBszuFgr27QMk-63" value="saveOffer()" style="html=1;verticalAlign=bottom;startArrow=oval;startFill=1;endArrow=block;startSize=8;curved=0;rounded=0;fontSize=13;fontStyle=2;labelBackgroundColor=none;" edge="1" parent="1">
          <mxGeometry width="60" relative="1" as="geometry">
            <mxPoint x="910" y="1200" as="sourcePoint" />
            <mxPoint x="-340" y="1200" as="targetPoint" />
          </mxGeometry>
        </mxCell>
        <mxCell id="HEaPXVeIBszuFgr27QMk-65" value="addBookOffer()" style="html=1;verticalAlign=bottom;startArrow=oval;startFill=1;endArrow=block;startSize=8;curved=0;rounded=0;fontSize=13;fontStyle=2;labelBackgroundColor=none;" edge="1" parent="1">
          <mxGeometry width="60" relative="1" as="geometry">
            <mxPoint x="-340" y="1240" as="sourcePoint" />
            <mxPoint x="-75" y="1240" as="targetPoint" />
          </mxGeometry>
        </mxCell>
        <mxCell id="HEaPXVeIBszuFgr27QMk-69" value="duplicateAssignment()" style="html=1;verticalAlign=bottom;startArrow=oval;startFill=1;endArrow=block;startSize=8;curved=0;rounded=0;fontSize=13;fontStyle=2;labelBackgroundColor=none;" edge="1" parent="1" target="HEaPXVeIBszuFgr27QMk-16">
          <mxGeometry width="60" relative="1" as="geometry">
            <mxPoint x="-70" y="1270" as="sourcePoint" />
            <mxPoint x="150" y="1270" as="targetPoint" />
          </mxGeometry>
        </mxCell>
        <mxCell id="HEaPXVeIBszuFgr27QMk-71" value="search duplicate Offer" style="html=1;verticalAlign=bottom;startArrow=oval;startFill=1;endArrow=block;startSize=8;curved=0;rounded=0;fontSize=13;fontStyle=2;labelBackgroundColor=none;" edge="1" parent="1">
          <mxGeometry width="60" relative="1" as="geometry">
            <mxPoint x="180" y="1300" as="sourcePoint" />
            <mxPoint x="365" y="1300" as="targetPoint" />
          </mxGeometry>
        </mxCell>
        <mxCell id="HEaPXVeIBszuFgr27QMk-72" value="return true or false" style="html=1;verticalAlign=bottom;endArrow=open;dashed=1;endSize=8;curved=0;rounded=0;fontSize=13;fontStyle=2" edge="1" parent="1">
          <mxGeometry relative="1" as="geometry">
            <mxPoint x="370" y="1330" as="sourcePoint" />
            <mxPoint x="180" y="1330" as="targetPoint" />
          </mxGeometry>
        </mxCell>
        <mxCell id="HEaPXVeIBszuFgr27QMk-73" value="return true or false" style="html=1;verticalAlign=bottom;endArrow=open;dashed=1;endSize=8;curved=0;rounded=0;fontSize=13;fontStyle=2" edge="1" parent="1">
          <mxGeometry relative="1" as="geometry">
            <mxPoint x="170" y="1351" as="sourcePoint" />
            <mxPoint x="-75.55263157894751" y="1351" as="targetPoint" />
          </mxGeometry>
        </mxCell>
        <mxCell id="HEaPXVeIBszuFgr27QMk-74" value="alt" style="shape=umlFrame;whiteSpace=wrap;html=1;pointerEvents=0;" vertex="1" parent="1">
          <mxGeometry x="-480" y="1390" width="1890" height="370" as="geometry" />
        </mxCell>
        <mxCell id="HEaPXVeIBszuFgr27QMk-75" value="Unique Book offer" style="text;html=1;align=center;verticalAlign=middle;resizable=0;points=[];autosize=1;fontSize=14;fontStyle=2;fillColor=#f8cecc;strokeColor=#b85450;" vertex="1" parent="1">
          <mxGeometry x="-290" y="1420" width="140" height="30" as="geometry" />
        </mxCell>
        <mxCell id="HEaPXVeIBszuFgr27QMk-76" value="DuplicateBook offer" style="text;html=1;align=center;verticalAlign=middle;resizable=0;points=[];autosize=1;fontSize=14;fontStyle=2;fillColor=#f8cecc;strokeColor=#b85450;" vertex="1" parent="1">
          <mxGeometry x="-290" y="1600" width="150" height="30" as="geometry" />
        </mxCell>
        <mxCell id="HEaPXVeIBszuFgr27QMk-77" value="" style="html=1;points=[[0,0,0,0,5],[0,1,0,0,-5],[1,0,0,0,5],[1,1,0,0,-5]];perimeter=orthogonalPerimeter;outlineConnect=0;targetShapes=umlLifeline;portConstraint=eastwest;newEdgeStyle={&quot;curved&quot;:0,&quot;rounded&quot;:0};strokeColor=#000000;fillColor=#dae8fc;" vertex="1" parent="1">
          <mxGeometry x="-80" y="1450" width="10" height="80" as="geometry" />
        </mxCell>
        <mxCell id="HEaPXVeIBszuFgr27QMk-78" value="" style="html=1;points=[[0,0,0,0,5],[0,1,0,0,-5],[1,0,0,0,5],[1,1,0,0,-5]];perimeter=orthogonalPerimeter;outlineConnect=0;targetShapes=umlLifeline;portConstraint=eastwest;newEdgeStyle={&quot;curved&quot;:0,&quot;rounded&quot;:0};strokeColor=#000000;fillColor=#dae8fc;" vertex="1" parent="1">
          <mxGeometry x="170" y="1460" width="10" height="110" as="geometry" />
        </mxCell>
        <mxCell id="HEaPXVeIBszuFgr27QMk-79" value="save()" style="html=1;verticalAlign=bottom;startArrow=oval;startFill=1;endArrow=block;startSize=8;curved=0;rounded=0;fontSize=13;fontStyle=2;labelBackgroundColor=none;" edge="1" parent="1">
          <mxGeometry width="60" relative="1" as="geometry">
            <mxPoint x="-75" y="1490" as="sourcePoint" />
            <mxPoint x="170" y="1490" as="targetPoint" />
          </mxGeometry>
        </mxCell>
        <mxCell id="HEaPXVeIBszuFgr27QMk-80" value="" style="html=1;points=[[0,0,0,0,5],[0,1,0,0,-5],[1,0,0,0,5],[1,1,0,0,-5]];perimeter=orthogonalPerimeter;outlineConnect=0;targetShapes=umlLifeline;portConstraint=eastwest;newEdgeStyle={&quot;curved&quot;:0,&quot;rounded&quot;:0};strokeColor=#000000;fillColor=#dae8fc;" vertex="1" parent="1">
          <mxGeometry x="365" y="1495" width="10" height="60" as="geometry" />
        </mxCell>
        <mxCell id="HEaPXVeIBszuFgr27QMk-81" value="save Offer" style="html=1;verticalAlign=bottom;startArrow=oval;startFill=1;endArrow=block;startSize=8;curved=0;rounded=0;fontSize=13;fontStyle=2;labelBackgroundColor=none;" edge="1" parent="1">
          <mxGeometry width="60" relative="1" as="geometry">
            <mxPoint x="180" y="1514.47" as="sourcePoint" />
            <mxPoint x="365" y="1514.47" as="targetPoint" />
          </mxGeometry>
        </mxCell>
        <mxCell id="HEaPXVeIBszuFgr27QMk-82" value="" style="html=1;points=[[0,0,0,0,5],[0,1,0,0,-5],[1,0,0,0,5],[1,1,0,0,-5]];perimeter=orthogonalPerimeter;outlineConnect=0;targetShapes=umlLifeline;portConstraint=eastwest;newEdgeStyle={&quot;curved&quot;:0,&quot;rounded&quot;:0};strokeColor=#000000;fillColor=#dae8fc;" vertex="1" parent="1">
          <mxGeometry x="-350" y="1650" width="10" height="60" as="geometry" />
        </mxCell>
        <mxCell id="HEaPXVeIBszuFgr27QMk-83" value="DuplicateBookOffer" style="shape=umlLifeline;perimeter=lifelinePerimeter;whiteSpace=wrap;html=1;container=1;dropTarget=0;collapsible=0;recursiveResize=0;outlineConnect=0;portConstraint=eastwest;newEdgeStyle={&quot;curved&quot;:0,&quot;rounded&quot;:0};fontSize=14;fontStyle=1;fillColor=#dae8fc;strokeColor=#6c8ebf;" vertex="1" parent="1">
          <mxGeometry x="1240" y="-40" width="150" height="2090" as="geometry" />
        </mxCell>
        <mxCell id="HEaPXVeIBszuFgr27QMk-84" value="" style="html=1;points=[[0,0,0,0,5],[0,1,0,0,-5],[1,0,0,0,5],[1,1,0,0,-5]];perimeter=orthogonalPerimeter;outlineConnect=0;targetShapes=umlLifeline;portConstraint=eastwest;newEdgeStyle={&quot;curved&quot;:0,&quot;rounded&quot;:0};strokeColor=#000000;fillColor=#dae8fc;" vertex="1" parent="HEaPXVeIBszuFgr27QMk-83">
          <mxGeometry x="70" y="1710" width="10" height="60" as="geometry" />
        </mxCell>
        <mxCell id="HEaPXVeIBszuFgr27QMk-86" value="call" style="html=1;verticalAlign=bottom;startArrow=oval;startFill=1;endArrow=block;startSize=8;curved=0;rounded=0;fontSize=13;fontStyle=2;labelBackgroundColor=none;" edge="1" parent="1">
          <mxGeometry width="60" relative="1" as="geometry">
            <mxPoint x="-346.1666666666665" y="1683" as="sourcePoint" />
            <mxPoint x="1310" y="1683" as="targetPoint" />
          </mxGeometry>
        </mxCell>
        <mxCell id="HEaPXVeIBszuFgr27QMk-87" value="BookAdded" style="shape=umlLifeline;perimeter=lifelinePerimeter;whiteSpace=wrap;html=1;container=1;dropTarget=0;collapsible=0;recursiveResize=0;outlineConnect=0;portConstraint=eastwest;newEdgeStyle={&quot;curved&quot;:0,&quot;rounded&quot;:0};fontSize=14;fontStyle=1;fillColor=#dae8fc;strokeColor=#6c8ebf;" vertex="1" parent="1">
          <mxGeometry x="1440" y="-40" width="110" height="2090" as="geometry" />
        </mxCell>
        <mxCell id="HEaPXVeIBszuFgr27QMk-88" value="" style="html=1;points=[[0,0,0,0,5],[0,1,0,0,-5],[1,0,0,0,5],[1,1,0,0,-5]];perimeter=orthogonalPerimeter;outlineConnect=0;targetShapes=umlLifeline;portConstraint=eastwest;newEdgeStyle={&quot;curved&quot;:0,&quot;rounded&quot;:0};strokeColor=#000000;fillColor=#dae8fc;" vertex="1" parent="HEaPXVeIBszuFgr27QMk-87">
          <mxGeometry x="50" y="1830" width="10" height="60" as="geometry" />
        </mxCell>
        <mxCell id="HEaPXVeIBszuFgr27QMk-90" value="call" style="html=1;verticalAlign=bottom;startArrow=oval;startFill=1;endArrow=block;startSize=8;curved=0;rounded=0;fontSize=13;fontStyle=2;labelBackgroundColor=none;" edge="1" parent="1" target="HEaPXVeIBszuFgr27QMk-88">
          <mxGeometry width="60" relative="1" as="geometry">
            <mxPoint x="-339.9966666666665" y="1820" as="sourcePoint" />
            <mxPoint x="1316.17" y="1820" as="targetPoint" />
          </mxGeometry>
        </mxCell>
      </root>
    </mxGraphModel>
  </diagram>
</mxfile>
